<?xml version="1.0" encoding="UTF-8" standalone="no"?>
<svg
   xmlns:dc="http://purl.org/dc/elements/1.1/"
   xmlns:cc="http://creativecommons.org/ns#"
   xmlns:rdf="http://www.w3.org/1999/02/22-rdf-syntax-ns#"
   xmlns:svg="http://www.w3.org/2000/svg"
   xmlns="http://www.w3.org/2000/svg"
   xmlns:sodipodi="http://sodipodi.sourceforge.net/DTD/sodipodi-0.dtd"
   xmlns:inkscape="http://www.inkscape.org/namespaces/inkscape"
   version="1.0"
   width="48pt"
   height="48pt"
   viewBox="0 0 2743.9285 3270.9456"
   preserveAspectRatio="xMidYMid meet"
   id="svg6"
   sodipodi:docname="7784.svg"
   inkscape:version="0.92.3 (2405546, 2018-03-11)">
  <metadata
     id="metadata12">
    <rdf:RDF>
      <cc:Work
         rdf:about="">
        <dc:format>image/svg+xml</dc:format>
        <dc:type
           rdf:resource="http://purl.org/dc/dcmitype/StillImage" />
      </cc:Work>
    </rdf:RDF>
  </metadata>
  <defs
     id="defs10" />
  <sodipodi:namedview
     pagecolor="#ffffff"
     bordercolor="#666666"
     borderopacity="1"
     objecttolerance="10"
     gridtolerance="10"
     guidetolerance="10"
     inkscape:pageopacity="0"
     inkscape:pageshadow="2"
     inkscape:window-width="2560"
     inkscape:window-height="1377"
     id="namedview8"
     showgrid="false"
     inkscape:zoom="0.070650805"
     inkscape:cx="-4918.4238"
     inkscape:cy="2209.6441"
     inkscape:window-x="-8"
     inkscape:window-y="-8"
     inkscape:window-maximized="1"
     inkscape:current-layer="svg6" />
  <g
     transform="matrix(0.30962857,0,0,-0.26084441,-6774.3635,6642.6139)"
     id="g4"
     style="fill:#8e34ef;stroke:none">
    <path
       d="m 26095,25459 c -890,-68 -1688,-538 -2181,-1286 -194,-293 -352,-678 -398,-970 -51,-322 -50,-232 -53,-3098 -4,-2768 -3,-2872 37,-3175 58,-431 147,-715 309,-983 173,-286 538,-656 876,-886 362,-247 746,-396 1145,-446 68,-8 130,-15 137,-15 11,0 13,590 13,3110 v 3110 h -790 -790 v 808 c 0,1250 15,1420 147,1733 202,476 605,861 1093,1042 206,77 370,107 610,114 531,15 1006,-150 1381,-481 260,-231 464,-580 539,-924 43,-197 45,-261 45,-1297 v -990 l -792,-3 -793,-2 v -3111 -3111 l 63,7 c 688,74 1294,394 1816,958 389,422 526,736 616,1419 28,212 35,462 35,1361 v 887 h -469 -469 l -5,-982 c -4,-790 -8,-1011 -20,-1123 -50,-459 -132,-692 -321,-912 -89,-104 -209,-222 -268,-264 l -28,-20 v 1975 1976 l 1108,-2 1107,-3 v -1390 c 0,-1281 -1,-1401 -18,-1530 -53,-414 -158,-765 -337,-1130 -246,-501 -592,-920 -1037,-1254 -178,-133 -305,-213 -508,-317 -373,-192 -731,-303 -1160,-361 -184,-25 -678,-25 -854,0 -572,80 -1040,256 -1501,562 -187,124 -306,218 -464,367 -288,272 -530,595 -710,948 -195,382 -294,701 -363,1160 -16,105 -17,280 -20,2003 l -4,1887 h -470 -470 l 4,-1927 c 4,-2112 0,-1970 63,-2323 229,-1278 1017,-2395 2154,-3055 1280,-744 2888,-786 4215,-110 634,323 1195,807 1610,1389 385,542 645,1168 755,1822 57,337 53,208 57,2287 l 4,1917 h -791 -791 l 2,968 c 1,974 -2,1088 -36,1340 -145,1047 -908,1914 -1950,2215 -332,96 -751,141 -1080,116 z m -1055,-7524 v -1946 l -32,17 c -61,32 -148,95 -212,155 -211,196 -325,454 -380,857 -14,98 -16,295 -16,1481 0,752 3,1371 7,1374 3,4 147,7 320,7 h 313 z"
       id="path2"
       inkscape:connector-curvature="0" />
  </g>
</svg>
