<?xml version="1.0" encoding="UTF-8" standalone="no"?>
<svg
   xmlns:dc="http://purl.org/dc/elements/1.1/"
   xmlns:cc="http://creativecommons.org/ns#"
   xmlns:rdf="http://www.w3.org/1999/02/22-rdf-syntax-ns#"
   xmlns:svg="http://www.w3.org/2000/svg"
   xmlns="http://www.w3.org/2000/svg"
   viewBox="0 0 212.33333 179.84"
   height="65"
   width="65"
   xml:space="preserve"
   id="svg2"
   version="1.1"><metadata
     id="metadata8"><rdf:RDF><cc:Work
         rdf:about=""><dc:format>image/svg+xml</dc:format><dc:type
           rdf:resource="http://purl.org/dc/dcmitype/StillImage" /></cc:Work></rdf:RDF></metadata><defs
     id="defs6" /><g
     transform="matrix(1.3333333,0,0,-1.3333333,0,179.84)"
     id="g10"><g
       transform="scale(0.1)"
       id="g12"><path
         id="path14"
         style="fill:#8e34ef;fill-opacity:1;fill-rule:nonzero;stroke:none"
         d="M 462.414,1127.43 H 329.406 l 133.008,147.11 z M 1303.08,896.793 v 429.477 c 0,12.42 -10.07,22.5 -22.5,22.5 H 478.852 c -6.36,0 -12.422,-2.7 -16.696,-7.41 L 262.047,1120.02 c -3.734,-4.13 -5.809,-9.51 -5.809,-15.09 V 896.793 h 45 v 185.637 h 183.676 c 12.43,0 22.5,10.08 22.5,22.5 v 198.84 H 1258.08 V 896.793 h 45" /><path
         id="path16"
         style="fill:#8e34ef;fill-opacity:1;fill-rule:nonzero;stroke:none"
         d="m 799.887,565.855 c 18.367,0 33.316,-14.957 33.316,-33.324 0,-18.371 -14.949,-33.312 -33.316,-33.312 -18.371,0 -33.321,14.941 -33.321,33.312 0,18.367 14.95,33.324 33.321,33.324 z m -22.5,-107.945 v -70.152 h 45 v 70.152 c 32.176,9.735 55.816,39.309 55.816,74.621 0,43.184 -35.133,78.324 -78.316,78.324 -43.184,0 -78.321,-35.14 -78.321,-78.324 0,-35.312 23.645,-64.886 55.821,-74.621" /><path
         id="path18"
         style="fill:#8e34ef;fill-opacity:1;fill-rule:nonzero;stroke:none"
         d="m 1450.97,610.855 h -147.89 v 154.688 h -45 V 45 H 301.238 v 720.543 h -45 V 610.855 H 141.496 C 88.2852,610.855 45,654.141 45,707.344 c 0,53.219 43.2852,96.504 96.496,96.504 h 441.906 c -0.035,-1.598 -0.242,-3.153 -0.242,-4.762 V 704.781 H 531.262 V 271.328 h 537.258 v 433.453 h -51.91 v 94.305 c 0,1.609 -0.21,3.164 -0.24,4.762 h 434.6 c 53.21,0 96.5,-43.285 96.5,-96.504 0,-53.203 -43.29,-96.489 -96.5,-96.489 z M 628.16,799.086 c 0,94.687 77.039,171.727 171.727,171.727 94.687,0 171.722,-77.04 171.722,-171.727 V 704.781 H 628.16 Z M 1023.52,659.781 V 316.328 H 576.262 v 343.453 z m 427.45,189.067 h -440.35 c -22.577,95.558 -108.378,166.962 -210.733,166.962 -102.36,0 -188.157,-71.404 -210.735,-166.962 H 141.496 C 63.4727,848.848 0,785.375 0,707.344 0,629.328 63.4727,565.855 141.496,565.855 H 256.238 V 22.5 c 0,-12.4219 10.071,-22.5 22.5,-22.5 H 1280.58 c 12.43,0 22.5,10.0781 22.5,22.5 v 543.355 h 147.89 c 78.03,0 141.5,63.473 141.5,141.489 0,78.031 -63.47,141.504 -141.5,141.504" /></g></g></svg>