<?xml version="1.0" standalone="no"?>
<!DOCTYPE svg PUBLIC "-//W3C//DTD SVG 20010904//EN"
 "http://www.w3.org/TR/2001/REC-SVG-20010904/DTD/svg10.dtd">
<svg version="1.0" xmlns="http://www.w3.org/2000/svg"
 width="512.000000pt" height="512.000000pt" viewBox="0 0 512.000000 512.000000"
 preserveAspectRatio="xMidYMid meet">
<metadata>
Created by potrace 1.15, written by Peter Selinger 2001-2017
</metadata>
<g transform="translate(0.000000,512.000000) scale(0.100000,-0.100000)"
fill="#ff8415" stroke="#ff8415">
<path d="M2305 5113 c-671 -72 -1279 -393 -1707 -903 -301 -358 -488 -764
-571 -1240 -19 -109 -21 -162 -21 -410 0 -248 2 -301 21 -410 94 -540 320
-987 693 -1374 383 -398 866 -650 1430 -749 109 -19 162 -21 410 -21 313 0
407 10 653 73 882 228 1600 946 1828 1828 63 246 73 340 73 653 0 313 -10 407
-73 653 -228 881 -946 1600 -1828 1828 -227 58 -334 71 -613 74 -140 2 -273 1
-295 -2z m314 -1108 c139 -34 315 -96 401 -140 131 -69 233 -198 266 -335 18
-73 17 -250 -1 -325 -17 -72 -19 -147 -4 -162 28 -28 -3 -229 -44 -286 -10
-16 -28 -63 -39 -105 -44 -174 -178 -390 -306 -497 -178 -148 -341 -180 -510
-99 -62 30 -95 55 -173 133 -130 131 -225 298 -260 457 -7 32 -25 84 -40 114
-32 63 -64 208 -55 246 4 14 16 38 27 54 20 27 20 29 5 150 -28 217 -19 330
38 445 78 156 238 295 416 361 57 21 165 16 279 -11z m-248 -2095 c182 -70
345 -44 535 86 l92 63 37 -29 c66 -53 189 -119 285 -154 200 -72 414 -166 465
-205 58 -44 103 -116 156 -246 56 -140 122 -433 144 -640 3 -33 8 -74 11 -91
5 -30 1 -35 -75 -93 -323 -246 -709 -404 -1144 -468 -152 -22 -482 -22 -634 0
-436 64 -819 221 -1146 470 -69 52 -78 62 -73 85 3 15 8 56 11 92 16 163 69
425 116 570 12 36 44 111 72 168 41 84 59 110 101 143 68 55 103 72 259 126
254 88 407 165 486 246 l43 45 92 -69 c59 -45 118 -80 167 -99z"/>
</g>
</svg>
