<?xml version="1.0" encoding="utf-8"?>
<!-- Generator: Adobe Illustrator 23.0.3, SVG Export Plug-In . SVG Version: 6.00 Build 0)  -->
<svg version="1.1" id="Слой_1" xmlns="http://www.w3.org/2000/svg" xmlns:xlink="http://www.w3.org/1999/xlink" x="0px" y="0px"
	 viewBox="0 0 792.94 521.53" style="enable-background:new 0 0 792.94 521.53;" xml:space="preserve">
<style type="text/css">
	.st0{fill:#FFFFFF;}
	.st1{fill:url(#SVGID_1_);}
	.st2{fill:url(#SVGID_2_);}
</style>
<g>
	<g>
		<path class="st0" d="M571.02,189.71c-0.12,12.31-1.38,24.62-3.92,36.65c-2.51,12.04-6.24,23.82-11.09,35.09
			c-9.69,22.56-23.83,43.08-41.21,60.24l-6.66,6.28c-2.32,1.98-4.62,3.99-6.96,5.95c-2.42,1.86-4.79,3.79-7.22,5.63l-3.73,2.65
			l-1.87,1.33c-0.62,0.44-1.24,0.9-1.89,1.3c-10.16,6.78-20.94,12.62-32.22,17.33c-11.27,4.71-23.01,8.31-35,10.72
			c-11.98,2.41-24.21,3.64-36.43,3.71c-12.23,0.04-24.47-1.09-36.49-3.42c-12.02-2.32-23.82-5.84-35.17-10.46
			c-22.71-9.23-43.58-23.01-61.07-40.28c-17.49-17.26-31.56-38-41.17-60.7c-9.63-22.69-14.67-47.34-14.86-72.03
			c-0.08-12.35,1.03-24.72,3.35-36.88s5.85-24.09,10.52-35.57c9.33-22.97,23.25-44.07,40.7-61.75c8.73-8.84,18.32-16.82,28.62-23.81
			l3.91-2.54l1.96-1.27c0.65-0.43,1.3-0.85,1.98-1.23l4.03-2.35l2.02-1.17l1.01-0.58l1.04-0.53l4.16-2.12l2.08-1.05l1.04-0.52
			l1.06-0.48l4.26-1.9c1.43-0.62,2.82-1.31,4.29-1.84C333.12,4.66,358.01-0.1,382.83,0c24.82,0.12,49.62,5.11,72.48,14.74
			c22.87,9.58,43.76,23.75,61.16,41.33c17.4,17.59,31.3,38.59,40.62,61.46C566.44,140.39,571.15,165.09,571.02,189.71z
			 M558.26,189.71c-0.14-22.99-4.79-45.88-13.7-66.99c-8.88-21.12-21.98-40.42-38.25-56.5c-16.27-16.08-35.68-28.91-56.8-37.53
			c-21.11-8.65-43.9-13.01-66.7-12.91c-22.79,0.12-45.5,4.71-66.44,13.53c-1.33,0.49-2.6,1.14-3.9,1.72l-3.87,1.77l-0.97,0.44
			l-0.95,0.49l-1.89,0.98l-3.78,1.95l-0.95,0.49l-0.92,0.53l-1.85,1.05l-3.71,2.1c-0.63,0.34-1.23,0.72-1.82,1.1l-1.8,1.14
			l-3.6,2.27c-9.49,6.25-18.38,13.44-26.49,21.42c-16.22,15.98-29.29,35.19-38.17,56.21c-8.9,21.01-13.58,43.81-13.78,66.73
			c-0.17,22.91,4.14,45.86,12.78,67.14c8.6,21.29,21.52,40.86,37.7,57.26c16.18,16.4,35.62,29.62,56.89,38.59
			c21.27,9.01,44.36,13.63,67.51,13.77c23.16,0.11,46.31-4.39,67.74-13.2c21.44-8.78,41.13-21.9,57.41-38.4
			c16.28-16.5,29.13-36.29,37.65-57.72C554.16,235.71,558.42,212.7,558.26,189.71z"/>
		<g>
			<g>
				<g>
					<g>
						<g>
							<path class="st0" d="M405.89,112.31v40.98h143.42c11.32,0,20.49,9.17,20.49,20.49l0,0c0,11.32-9.17,20.49-20.49,20.49h-61.47
								v61.47c0,11.32-9.17,20.49-20.49,20.49l0,0c-11.32,0-20.49-9.17-20.49-20.49v-61.47h-40.98v61.47
								c0,11.32-9.17,20.49-20.49,20.49l0,0c-11.32,0-20.49-9.17-20.49-20.49v-35.86l-81.96,97.32V194.27h-61.47
								c-11.32,0-20.49-9.17-20.49-20.49l0,0c0-11.32,9.17-20.49,20.49-20.49h102.45v51.22L405.89,112.31 M428.66,52.44
								l-39.78,44.75l-42.18,47.45v-14.11h-22.77H221.49c-23.85,0-43.25,19.4-43.25,43.25s19.4,43.25,43.25,43.25h38.7V317.2v62.38
								l40.18-47.71l46.91-55.71c7.3,13.58,21.65,22.83,38.12,22.83c19.01,0,35.19-12.32,40.98-29.4
								c5.79,17.07,21.97,29.4,40.98,29.4c23.85,0,43.25-19.4,43.25-43.25v-38.7h38.7c23.85,0,43.25-19.4,43.25-43.25
								s-19.4-43.25-43.25-43.25H428.66v-18.21V52.44L428.66,52.44z"/>
						</g>
					</g>
				</g>
			</g>
			
				<linearGradient id="SVGID_1_" gradientUnits="userSpaceOnUse" x1="303.44" y1="468.3155" x2="303.44" y2="274.0756" gradientTransform="matrix(1 0 0 -1 0 521.523)">
				<stop  offset="0" style="stop-color:#10447F"/>
				<stop  offset="1" style="stop-color:#2A8BCC"/>
			</linearGradient>
			<path class="st1" d="M385.4,276.23L385.4,276.23c-11.32,0-20.49-9.17-20.49-20.49v-35.86l-81.96,97.32V194.27h-61.47
				c-11.32,0-20.49-9.17-20.49-20.49l0,0c0-11.32,9.17-20.49,20.49-20.49h102.45v51.22l81.96-92.2v143.42
				C405.89,267.05,396.72,276.23,385.4,276.23z"/>
			
				<linearGradient id="SVGID_2_" gradientUnits="userSpaceOnUse" x1="467.36" y1="368.2315" x2="467.36" y2="245.2815" gradientTransform="matrix(1 0 0 -1 0 521.523)">
				<stop  offset="0" style="stop-color:#00A9AA"/>
				<stop  offset="1" style="stop-color:#74C8DA"/>
			</linearGradient>
			<path class="st2" d="M364.91,173.78L364.91,173.78c0,11.32,9.17,20.49,20.49,20.49l61.47,0.01v61.47
				c0,11.32,9.17,20.49,20.49,20.49l0,0c11.32,0,20.49-9.17,20.49-20.49v-61.47h61.47c11.32,0,20.49-9.17,20.49-20.49l0,0
				c0-11.32-9.17-20.49-20.49-20.49l-163.91-0.01C374.09,153.29,364.91,162.46,364.91,173.78z"/>
			<g>
				<g>
					<path class="st0" d="M29.59,494.85L12.31,460.3H0l23.53,47.06c-2.23,3.97-3.85,3.97-4.51,3.97c-0.74,0-1.97-0.29-2.6-0.5
						l-5.76-1.92v10.67l2.99,1c0.47,0.16,2.97,0.95,5.36,0.95c8.2,0,12.27-6.2,15.17-12.27l23.23-48.95h-11.5L29.59,494.85z"/>
					<polygon class="st0" points="70.38,519.71 81.3,519.71 81.3,470.49 106.57,470.49 106.57,519.71 117.49,519.71 117.49,460.29 
						70.38,460.29 					"/>
					<path class="st0" d="M162.34,460.29h-22.47v59.41h10.92v-18.82h11.55c12.81,0,22.47-8.73,22.47-20.3
						C184.8,469.02,175.14,460.29,162.34,460.29z M162.34,490.69h-11.55v-20.2h11.55c6.69,0,11.55,4.25,11.55,10.1
						C173.89,486.44,169.03,490.69,162.34,490.69z"/>
					<path class="st0" d="M216.63,460.29l-25.46,59.41h11.34l6.15-14.48h22.44l6.15,14.48h12.06l-25.46-59.41H216.63z M213.1,495.03
						l6.77-15.92l6.77,15.92H213.1z"/>
					<path class="st0" d="M301.52,486.41c2.17-2.35,3.8-5.57,3.8-9.8c0-9.45-7.93-16.32-18.85-16.32H264v59.41h24.64
						c11.98,0,21.02-7.95,21.02-18.49C309.66,493.88,305.84,489.19,301.52,486.41z M288.64,509.51h-13.72v-16.59h13.72
						c5.85,0,10.1,3.49,10.1,8.29S294.49,509.51,288.64,509.51z M286.47,482.73h-11.55v-12.24h11.55c4.74,0,7.93,2.46,7.93,6.12
						C294.4,480.27,291.21,482.73,286.47,482.73z"/>
					<path class="st0" d="M365.72,519.71h12.06l-25.46-59.41h-7.22l-25.46,59.41h11.34l17.37-40.59L365.72,519.71z"/>
					<polygon class="st0" points="403.39,494.37 427.06,494.36 427.06,484.18 403.39,484.18 403.39,470.49 435.02,470.48 
						435.02,460.29 392.47,460.29 392.47,519.71 435.24,519.71 435.24,509.51 403.39,509.51 					"/>
					<polygon class="st0" points="487.65,484.9 462.38,484.9 462.38,460.29 451.46,460.29 451.46,519.71 462.38,519.71 
						462.38,495.1 487.65,495.1 487.65,519.71 498.57,519.71 498.57,460.29 487.65,460.29 					"/>
					<polygon class="st0" points="531.87,498.87 531.87,460.29 520.95,460.29 520.95,519.71 529.75,519.71 557.14,481.13 
						557.14,519.71 568.05,519.71 568.05,460.29 559.25,460.29 					"/>
					<polygon class="st0" points="601.35,494.37 625.02,494.36 625.02,484.18 601.35,484.18 601.35,470.49 632.98,470.48 
						632.98,460.29 590.43,460.29 590.43,519.71 633.2,519.71 633.2,509.51 601.35,509.51 					"/>
					<polygon class="st0" points="691.46,498.87 691.46,460.29 680.54,460.29 680.54,519.71 689.35,519.71 716.73,481.13 
						716.73,519.71 727.65,519.71 727.65,460.29 718.85,460.29 					"/>
					<polygon class="st0" points="743.15,460.29 743.15,470.49 761.97,470.49 761.97,519.71 772.89,519.71 772.89,470.49 
						792.94,470.48 792.94,460.29 					"/>
				</g>
			</g>
		</g>
	</g>
</g>
</svg>
