<?xml version="1.0" standalone="no"?>
<!DOCTYPE svg PUBLIC "-//W3C//DTD SVG 20010904//EN"
 "http://www.w3.org/TR/2001/REC-SVG-20010904/DTD/svg10.dtd">
<svg version="1.0" xmlns="http://www.w3.org/2000/svg"
 width="1556.000000pt" height="2000.000000pt" viewBox="0 0 1556.000000 2000.000000"
 preserveAspectRatio="xMidYMid meet">
<metadata>
Created by potrace 1.15, written by Peter Selinger 2001-2017
</metadata>
<g transform="translate(0.000000,2000.000000) scale(0.100000,-0.100000)"
fill="#8e34ef" stroke="none">
<path d="M8523 18548 c-842 -843 -1026 -1032 -1045 -1073 l-23 -50 -5 -775 -5
-774 -160 -18 c-1208 -133 -2283 -709 -3000 -1608 -468 -587 -760 -1304 -825
-2030 -6 -73 -10 -738 -10 -1832 l0 -1718 330 0 330 0 0 1643 c0 1641 3 1800
36 2022 181 1224 1112 2271 2391 2689 643 210 1354 254 2008 125 1430 -283
2539 -1302 2829 -2599 69 -312 76 -438 76 -1462 l0 -868 330 0 330 0 0 943 c0
563 -4 988 -10 1057 -97 1078 -677 2089 -1592 2771 -648 483 -1400 775 -2233
867 l-160 18 -3 659 -2 660 952 952 953 953 -235 235 -235 235 -1022 -1022z"/>
<path d="M6015 13510 c-156 -25 -329 -91 -458 -177 -96 -63 -244 -207 -307
-299 -66 -96 -132 -235 -167 -354 l-28 -95 -5 -2501 -5 -2501 -95 68 c-230
166 -474 269 -760 321 -95 17 -168 22 -428 25 l-313 5 4 -1858 c4 -2031 0
-1896 63 -2274 269 -1625 1344 -2802 2908 -3180 173 -42 381 -79 596 -107 118
-15 264 -17 1149 -20 1117 -4 1143 -3 1441 57 1030 210 1896 936 2284 1915
103 260 168 525 201 810 14 125 15 419 13 2720 l-3 2580 -22 70 c-99 308 -314
533 -600 631 -144 49 -231 57 -561 52 -253 -4 -296 -7 -366 -26 -80 -22 -96
-22 -96 3 0 26 -95 199 -142 262 -102 131 -259 246 -415 303 -140 50 -224 60
-523 60 -292 0 -383 -10 -510 -56 -39 -14 -73 -24 -74 -22 -2 2 -22 32 -46 68
-95 142 -266 280 -422 340 -161 62 -182 65 -543 65 -312 0 -393 -6 -462 -32
-11 -4 -13 201 -13 1065 0 1174 1 1152 -61 1328 -126 362 -423 634 -797 731
-109 28 -330 39 -437 23z m307 -681 c148 -50 254 -157 305 -309 17 -53 18
-167 23 -2670 l5 -2615 23 -42 c51 -96 123 -153 224 -179 150 -39 315 41 382
185 21 46 21 48 26 1186 5 1130 5 1140 26 1185 27 60 77 108 141 137 51 24 56
24 315 21 236 -3 267 -5 302 -22 53 -27 104 -80 130 -135 21 -46 21 -50 26
-1186 l5 -1140 28 -57 c78 -159 272 -228 434 -154 72 33 134 94 166 164 22 47
22 50 27 987 l5 940 28 57 c16 33 45 70 67 88 72 57 100 61 386 58 227 -3 264
-5 296 -21 52 -26 107 -83 132 -136 21 -46 21 -55 26 -986 l5 -940 28 -57 c78
-159 272 -228 434 -154 69 31 127 88 165 158 l23 43 5 645 c5 631 5 646 26
691 26 55 77 108 130 135 35 17 66 19 298 22 285 3 314 -1 385 -57 20 -16 50
-53 67 -83 l29 -53 0 -2520 c0 -1999 -3 -2540 -13 -2615 -60 -447 -220 -844
-478 -1190 -87 -116 -330 -367 -439 -452 -365 -286 -772 -456 -1245 -520 -72
-10 -324 -13 -1035 -13 -844 0 -957 2 -1105 18 -756 84 -1356 322 -1862 739
-114 93 -330 313 -421 428 -394 495 -625 1093 -714 1850 -15 129 -17 310 -20
1598 l-4 1453 28 -7 c203 -47 409 -161 558 -309 169 -167 274 -357 326 -592
22 -95 23 -120 28 -933 l6 -835 23 -42 c49 -93 118 -150 217 -179 155 -45 337
49 395 202 20 55 20 58 20 3927 0 4196 -3 3943 53 4054 54 105 162 198 275
234 80 25 205 25 284 -2z"/>
</g>
</svg>
